<svg xmlns="http://www.w3.org/2000/svg" viewBox="970 706 75 75">
  <defs>
    <style>
      .cls-1 {
        fill: #fff;
      }
    </style>
  </defs>
  <g id="Group_16" data-name="Group 16" transform="translate(820 184)">
    <path id="Subtraction_1" data-name="Subtraction 1" class="cls-1" d="M-782.5-109A37.543,37.543,0,0,1-820-146.5,37.542,37.542,0,0,1-782.5-184,37.542,37.542,0,0,1-745-146.5,37.542,37.542,0,0,1-782.5-109Zm-17-42a4.505,4.505,0,0,0-4.5,4.5,4.505,4.505,0,0,0,4.5,4.5h21.136l-1.561,1.561a4.506,4.506,0,0,0,0,6.364,4.468,4.468,0,0,0,3.182,1.318,4.467,4.467,0,0,0,3.182-1.318l8.485-8.485a4.658,4.658,0,0,0,.356-.4A4.479,4.479,0,0,0-763-146.5a4.479,4.479,0,0,0-1.719-3.538,4.663,4.663,0,0,0-.356-.4l-8.485-8.485a4.469,4.469,0,0,0-3.182-1.318,4.471,4.471,0,0,0-3.182,1.318,4.507,4.507,0,0,0,0,6.364l1.561,1.561Z" transform="translate(970 706)"/>
  </g>
</svg>
